<mxfile host="app.diagrams.net" modified="2022-03-18T07:54:25.757Z" agent="5.0 (X11; Linux x86_64) AppleWebKit/537.36 (KHTML, like Gecko) Chrome/99.0.4844.51 Safari/537.36" etag="3XZeVx7xKdfGaQPIbqsS" version="17.1.3" type="github">
  <diagram id="IliTuSH1vDlKJ7cvSDFC" name="Page-1">
    <mxGraphModel dx="871" dy="485" grid="1" gridSize="10" guides="1" tooltips="1" connect="1" arrows="1" fold="1" page="1" pageScale="1" pageWidth="850" pageHeight="1100" math="0" shadow="0">
      <root>
        <mxCell id="0" />
        <mxCell id="1" parent="0" />
        <mxCell id="qX9AZUPeDTjfi-QWZORI-3" value="" style="edgeStyle=orthogonalEdgeStyle;rounded=0;orthogonalLoop=1;jettySize=auto;html=1;" edge="1" parent="1" source="qX9AZUPeDTjfi-QWZORI-1" target="qX9AZUPeDTjfi-QWZORI-2">
          <mxGeometry relative="1" as="geometry" />
        </mxCell>
        <mxCell id="qX9AZUPeDTjfi-QWZORI-1" value="Start" style="ellipse;whiteSpace=wrap;html=1;" vertex="1" parent="1">
          <mxGeometry x="340" y="30" width="120" height="80" as="geometry" />
        </mxCell>
        <mxCell id="qX9AZUPeDTjfi-QWZORI-5" value="" style="edgeStyle=orthogonalEdgeStyle;rounded=0;orthogonalLoop=1;jettySize=auto;html=1;" edge="1" parent="1" source="qX9AZUPeDTjfi-QWZORI-2" target="qX9AZUPeDTjfi-QWZORI-4">
          <mxGeometry relative="1" as="geometry" />
        </mxCell>
        <mxCell id="qX9AZUPeDTjfi-QWZORI-2" value="Read&amp;nbsp; x" style="shape=parallelogram;html=1;strokeWidth=2;perimeter=parallelogramPerimeter;whiteSpace=wrap;rounded=1;arcSize=12;size=0.23;" vertex="1" parent="1">
          <mxGeometry x="350" y="140" width="100" height="60" as="geometry" />
        </mxCell>
        <mxCell id="qX9AZUPeDTjfi-QWZORI-15" value="" style="edgeStyle=orthogonalEdgeStyle;rounded=0;orthogonalLoop=1;jettySize=auto;html=1;" edge="1" parent="1" source="qX9AZUPeDTjfi-QWZORI-4">
          <mxGeometry relative="1" as="geometry">
            <mxPoint x="520" y="290" as="targetPoint" />
          </mxGeometry>
        </mxCell>
        <mxCell id="qX9AZUPeDTjfi-QWZORI-4" value="is x greater than or equal to 0" style="strokeWidth=2;html=1;shape=mxgraph.flowchart.decision;whiteSpace=wrap;" vertex="1" parent="1">
          <mxGeometry x="350" y="240" width="100" height="100" as="geometry" />
        </mxCell>
        <mxCell id="qX9AZUPeDTjfi-QWZORI-6" value="sum = x + sum&amp;nbsp;" style="whiteSpace=wrap;html=1;strokeWidth=2;" vertex="1" parent="1">
          <mxGeometry x="340" y="370" width="120" height="60" as="geometry" />
        </mxCell>
        <mxCell id="qX9AZUPeDTjfi-QWZORI-13" value="True" style="endArrow=classic;html=1;rounded=0;entryX=0.5;entryY=0;entryDx=0;entryDy=0;" edge="1" parent="1" target="qX9AZUPeDTjfi-QWZORI-6">
          <mxGeometry width="50" height="50" relative="1" as="geometry">
            <mxPoint x="400" y="340" as="sourcePoint" />
            <mxPoint x="450" y="230" as="targetPoint" />
          </mxGeometry>
        </mxCell>
        <mxCell id="qX9AZUPeDTjfi-QWZORI-18" value="" style="edgeStyle=orthogonalEdgeStyle;rounded=0;orthogonalLoop=1;jettySize=auto;html=1;" edge="1" parent="1" source="qX9AZUPeDTjfi-QWZORI-16" target="qX9AZUPeDTjfi-QWZORI-17">
          <mxGeometry relative="1" as="geometry" />
        </mxCell>
        <mxCell id="qX9AZUPeDTjfi-QWZORI-16" value="Print sum" style="shape=parallelogram;perimeter=parallelogramPerimeter;whiteSpace=wrap;html=1;fixedSize=1;" vertex="1" parent="1">
          <mxGeometry x="510" y="260" width="120" height="60" as="geometry" />
        </mxCell>
        <mxCell id="qX9AZUPeDTjfi-QWZORI-17" value="End" style="ellipse;whiteSpace=wrap;html=1;" vertex="1" parent="1">
          <mxGeometry x="710" y="260" width="120" height="60" as="geometry" />
        </mxCell>
        <mxCell id="qX9AZUPeDTjfi-QWZORI-19" value="" style="endArrow=classic;html=1;rounded=0;exitX=0.358;exitY=1.017;exitDx=0;exitDy=0;exitPerimeter=0;entryX=0;entryY=0.5;entryDx=0;entryDy=0;entryPerimeter=0;" edge="1" parent="1" source="qX9AZUPeDTjfi-QWZORI-6" target="qX9AZUPeDTjfi-QWZORI-4">
          <mxGeometry width="50" height="50" relative="1" as="geometry">
            <mxPoint x="400" y="280" as="sourcePoint" />
            <mxPoint x="220" y="280" as="targetPoint" />
            <Array as="points">
              <mxPoint x="383" y="460" />
              <mxPoint x="220" y="460" />
              <mxPoint x="220" y="290" />
            </Array>
          </mxGeometry>
        </mxCell>
        <mxCell id="qX9AZUPeDTjfi-QWZORI-20" value="while loop" style="text;html=1;strokeColor=none;fillColor=none;align=center;verticalAlign=middle;whiteSpace=wrap;rounded=0;" vertex="1" parent="1">
          <mxGeometry x="200" y="220" width="60" height="30" as="geometry" />
        </mxCell>
        <mxCell id="qX9AZUPeDTjfi-QWZORI-21" value="" style="endArrow=none;dashed=1;html=1;dashPattern=1 3;strokeWidth=2;rounded=0;entryX=0.17;entryY=0.28;entryDx=0;entryDy=0;entryPerimeter=0;" edge="1" parent="1" source="qX9AZUPeDTjfi-QWZORI-20" target="qX9AZUPeDTjfi-QWZORI-4">
          <mxGeometry width="50" height="50" relative="1" as="geometry">
            <mxPoint x="400" y="280" as="sourcePoint" />
            <mxPoint x="450" y="230" as="targetPoint" />
          </mxGeometry>
        </mxCell>
        <mxCell id="qX9AZUPeDTjfi-QWZORI-23" style="edgeStyle=orthogonalEdgeStyle;rounded=0;orthogonalLoop=1;jettySize=auto;html=1;entryX=1;entryY=0.5;entryDx=0;entryDy=0;" edge="1" parent="1" source="qX9AZUPeDTjfi-QWZORI-22" target="qX9AZUPeDTjfi-QWZORI-1">
          <mxGeometry relative="1" as="geometry" />
        </mxCell>
        <mxCell id="qX9AZUPeDTjfi-QWZORI-22" value="" style="strokeWidth=2;html=1;shape=mxgraph.flowchart.annotation_2;align=left;labelPosition=right;pointerEvents=1;" vertex="1" parent="1">
          <mxGeometry x="510" y="80" width="50" height="100" as="geometry" />
        </mxCell>
        <mxCell id="qX9AZUPeDTjfi-QWZORI-24" value="Start of the function" style="text;html=1;align=center;verticalAlign=middle;resizable=0;points=[];autosize=1;strokeColor=none;fillColor=none;" vertex="1" parent="1">
          <mxGeometry x="530" y="120" width="120" height="20" as="geometry" />
        </mxCell>
      </root>
    </mxGraphModel>
  </diagram>
</mxfile>
